<svg width="346" height="514" viewBox="0 0 346 514" fill="none" xmlns="http://www.w3.org/2000/svg">
<path d="M343.665 246.994L343.391 246.7L343.217 246.544L342.895 246.25L342.241 245.667C341.803 245.287 341.391 244.873 340.925 244.522C340.005 243.791 339.112 243.044 338.132 242.39C336.236 240.998 334.176 239.838 332.079 238.76C327.829 236.712 323.234 235.291 318.546 234.771C313.868 234.232 309.14 234.421 304.586 235.238C300.03 236.063 295.632 237.431 291.438 239.166C283.037 242.661 275.401 247.488 268.355 252.911C261.546 258.127 255.318 263.955 249.395 270.036C245.472 270.995 242.048 272.551 238.716 274.183C235.102 275.98 231.669 277.982 228.294 280.033C224.933 282.088 221.63 284.215 218.376 286.33C216.741 287.383 215.118 288.432 213.519 289.43C212.718 289.917 211.913 290.412 211.148 290.83C211 290.907 210.857 290.984 210.712 291.067L210.06 290.555L207.898 288.808C206.459 287.633 205.05 286.431 203.668 285.219C203.08 284.692 202.496 284.166 201.914 283.634C202.271 281.422 202.602 279.211 202.904 277.028C203.299 274.287 203.638 271.454 203.933 268.554C203.936 268.514 203.939 268.481 203.943 268.444C204.106 266.854 204.246 265.242 204.373 263.605C204.383 263.51 204.39 263.416 204.396 263.326V263.319C204.671 259.632 204.867 255.809 204.953 251.868L204.836 251.847C206.46 230.42 204.105 214.087 203.811 212.185C203.776 211.627 203.731 211.057 203.715 210.525L203.703 209.051C203.762 208.717 203.775 208.452 203.799 208.071L204.135 205.89L204.266 204.053C204.537 199.268 204.514 194.726 204.493 190.115C204.409 180.94 204.114 171.81 203.716 162.673C203.515 158.103 203.267 153.53 202.966 148.945C202.812 146.654 202.65 144.361 202.439 142.052C202.245 139.829 202.016 137.606 201.636 135.184C201.537 133.973 201.493 132.462 201.46 130.988L201.349 126.481L201.081 117.412C200.848 111.344 200.478 105.272 199.921 99.201C199.354 93.126 198.665 87.05 197.589 80.993C196.561 75.12 195.268 69.259 193.514 63.45C193.542 54.466 191.191 44.813 189.904 35.706C189.783 34.59 189.638 33.466 189.484 32.351C189.476 32.318 189.474 32.292 189.469 32.255H189.468C189.032 29.219 188.493 26.188 187.884 23.166L187.169 19.998L186.35 16.829C185.728 14.716 185.113 12.62 184.187 10.424L183.833 9.599L183.657 9.18L183.372 8.644C182.991 7.927 182.503 7.26201 181.978 6.66201C180.915 5.45301 179.659 4.53 178.399 3.834C178.174 3.708 177.947 3.591 177.723 3.489V3.478H177.721C175.407 2.34 173.098 1.761 170.863 1.376C170.386 1.292 169.915 1.243 169.441 1.18C166.477 0.641004 166.529 0.505 164.661 0.493C161.791 0.19 140.098 -0.980991 145.039 34.73C145.056 42.672 144.993 50.625 145.056 58.597C145.467 59.64 145.299 60.93 145.201 62.135C145.042 64.001 145.594 65.862 145.446 67.747C145.411 68.226 145.348 68.7 145.299 69.183C145.341 70.261 145.393 71.342 145.456 72.433C145.687 76.741 145.607 81.057 145.425 85.437L138.076 152.72C137.247 151.624 136.318 150.623 135.255 149.734C135.255 149.748 135.255 149.773 135.258 149.797L135.279 149.822C132.243 148.4 129.605 147.785 127.709 147.576C127.697 147.569 127.685 147.555 127.667 147.55C127.569 147.541 127.454 147.536 127.347 147.536C125.594 147.373 124.556 147.511 124.556 147.511C121.396 147.565 116.906 147.841 110.277 148.566C91.993 150.561 88.22 167.665 86.189 176.86C86.144 177.065 86.098 177.278 86.05 177.496C83.914 175.719 81.471 174.313 78.798 173.355C75.283 172.097 71.538 171.667 68.246 172.132C67.578 172.227 66.911 172.314 66.247 172.403C61.763 172.998 57.131 173.61 50.422 176.174C43.225 178.916 40.832 190.596 38.836 203.341C38.808 203.53 38.782 203.706 38.753 203.883C30.919 201.522 21.887 204.217 16.404 205.854L15.638 206.083C10.118 207.708 7.68701 212.824 2.83501 223.033C-1.04599 231.213 0.271007 236.313 1.94001 242.772C2.33501 244.302 2.76901 245.997 3.17301 247.876C4.32201 250.351 5.60801 252.764 7.23101 254.949C7.30601 254.827 7.38301 254.694 7.45501 254.566C7.45501 254.575 7.45801 254.58 7.46201 254.58C5.57501 259.589 4.491 265.12 6.142 269.945C8.732 277.52 7.508 288.336 5.905 299.679C3.511 316.59 -2.98999 372.34 11.906 390.422C12.467 400.295 15.17 410.737 18.573 416.08C21.104 421.245 22.349 477.792 20.149 487.263L19.762 488.907L20.868 490.196C26.348 496.548 35.292 501.821 47.46 505.845C82.813 517.544 136.917 515.559 156.692 501.834L158.069 500.871L158.124 499.204C158.227 495.892 158.194 491.35 158.154 486.095C157.991 464.016 157.719 427.074 167.142 408.637C171.408 401.865 182.679 392.656 194.806 384.03C200.673 380.999 206.539 377.981 212.421 375.021C216.285 373.079 220.157 371.154 224.031 369.276C225.964 368.362 227.909 367.418 229.843 366.549C230.807 366.1 231.775 365.67 232.728 365.27L234.182 364.629L235.953 363.775C237.172 363.238 238.201 362.458 239.292 361.762C240.358 361.03 241.254 360.188 242.23 359.394C243.087 358.553 243.968 357.713 244.779 356.864C245.543 356.014 246.341 355.154 247.082 354.296C250.021 350.854 252.639 347.486 255.42 344.238C260.889 337.704 266.808 331.656 273.193 326.026L278.047 321.874L283.043 317.886C284.711 316.553 286.465 315.32 288.176 314.038L290.762 312.135L293.549 309.975C300.653 303.967 306.2 297.094 311.778 290.386C317.307 283.642 322.708 276.929 328.466 270.631C331.372 267.518 334.31 264.445 337.452 261.679C338.993 260.23 340.628 258.953 342.243 257.641L342.931 257.088C343.346 256.751 343.729 256.368 344.066 255.939C344.738 255.086 345.195 254.061 345.401 252.999C345.836 250.879 345.154 248.542 343.665 246.994ZM87.153 238.419C87.625 228.199 87.837 217.119 88.019 207.344C88.157 200.259 88.292 193.025 88.521 188.614L90.343 185.781C91.412 184.109 91.953 181.667 92.698 178.288C95.216 166.884 98.505 156.548 110.991 155.185C120.74 154.124 125.479 154.074 128.109 154.251H128.113C129.339 154.326 130.114 154.465 130.717 154.566C131.07 154.629 131.436 154.688 131.832 154.732C131.832 154.732 134.977 155.965 137.403 158.84L138.923 163.075C139.579 165.793 140.086 169.793 139.561 175.103C138.832 184.142 137.479 200.119 135.047 227.918C132.845 244.845 133.046 271.626 132.714 273.718C132.293 276.366 133.641 288.202 123.532 296.38C113.426 304.558 95.938 296.429 94.101 294.169C93.129 292.982 91.133 284.826 89.451 277.351C87.938 263.515 86.688 248.468 87.153 238.419ZM43.592 214.065L44.575 209.349C44.843 208.036 45.11 206.336 45.421 204.368C46.378 198.271 48.615 183.99 52.799 182.392C58.779 180.106 62.831 179.571 67.123 179.002C67.805 178.911 68.487 178.822 69.178 178.721C71.385 178.415 74.07 178.742 76.552 179.63C78.887 180.461 82.219 182.234 84.808 185.909L85.625 187.067C85.357 190.81 85.224 197.328 85.032 207.286C84.845 217.043 84.638 228.096 84.168 238.28C83.364 255.735 87.593 287.775 89.627 303.175C90.113 306.871 90.543 310.1 90.627 311.149C89.067 313.722 84.21 320.767 77.247 321.941C68.961 323.342 58.265 318.069 56.504 314.096C55.369 311.541 52.511 297.944 49.984 285.939C47.927 276.151 45.984 266.916 44.732 262.269C43.177 256.48 43.289 244.43 43.399 232.77C43.464 225.839 43.523 219.196 43.25 213.849L43.592 214.065ZM38.004 314.996C36.08 313.955 30.653 300.407 32.766 294.55C32.995 293.904 33.434 293.345 33.999 292.839C34.844 293.362 35.724 293.8 36.635 294.126C38.629 294.835 40.735 295.046 42.748 294.684C44.829 294.315 46.69 293.332 48.179 291.877C50.102 300.953 51.855 309.06 53.036 313.13C49.922 315.354 40.157 315.928 38.004 314.996ZM52.844 316.547C50.364 317.866 45.633 319.583 40.293 318.449C40.155 318.417 40.02 318.382 39.885 318.345C43.608 318.643 49.154 318.083 52.844 316.547ZM35.328 291.873C38.709 289.915 44.37 289.194 47.58 289.026C47.655 289.383 47.729 289.741 47.802 290.093C46.44 291.758 44.626 292.839 42.487 293.219C40.11 293.64 37.584 293.142 35.328 291.873ZM8.209 240.402V240.388C6.796 234.891 6.121 231.638 8.855 225.885C13.023 217.124 14.968 213.22 17.521 212.465L18.306 212.234C23.217 210.776 31.441 208.323 37.416 210.457C38.175 210.73 38.883 211.071 39.523 211.479L40.134 211.867C40.554 217.378 40.489 224.869 40.414 232.742C40.302 244.597 40.187 256.86 41.845 263.045C43.054 267.537 44.944 276.506 46.956 286.059C42.555 286.309 32.119 287.535 29.953 293.534C28.197 298.397 30.478 307.53 33.245 313.109C32.241 311.591 31.318 309.81 30.387 307.772C28.262 303.125 24.468 292.056 21.418 283.162C20.99 281.901 20.575 280.696 20.174 279.529L20.178 279.538C20.174 279.534 20.174 279.529 20.171 279.522C19.555 277.727 18.971 276.028 18.441 274.541C17.633 272.245 16.625 269.546 15.551 266.777C12.998 258.968 10.965 251.47 9.69201 246.473C9.26701 244.463 8.80901 242.702 8.39301 241.093C8.33001 240.857 8.27 240.631 8.209 240.402ZM306.089 285.656C300.527 292.246 294.953 298.875 288.704 304.024L287.144 305.212L287.001 305.041L284.349 301.879L278.957 295.643L283.429 302.55L285.603 306.039L285.737 306.262L283.644 307.773C282.544 308.581 281.435 309.372 280.328 310.173L276.984 308.407L273.65 306.593L272.004 305.645C271.481 305.309 270.883 305.028 270.463 304.571C270.813 305.106 271.369 305.461 271.838 305.881L273.332 307.065L276.367 309.373L278.888 311.231C278.691 311.381 278.488 311.52 278.294 311.67L273.046 315.728L267.931 319.978C261.192 325.736 254.825 332.048 249.042 338.752C246.124 342.066 243.356 345.517 240.599 348.632C239.908 349.412 239.212 350.136 238.523 350.885C237.82 351.597 237.113 352.247 236.415 352.919C235.684 353.462 234.996 354.124 234.254 354.597C233.502 355.046 232.799 355.607 231.998 355.915L230.836 356.461L229.295 357.11C228.24 357.54 227.221 357.983 226.209 358.436C224.166 359.314 222.188 360.249 220.189 361.172C216.22 363.022 212.282 364.918 208.361 366.828C203.373 369.262 198.422 371.726 193.468 374.201C179.056 380.422 165.064 394.265 165.064 394.265C163.898 395.263 162.708 396.226 161.454 397.109C156.076 400.916 149.753 403.409 143.093 403.637C139.778 403.778 136.417 403.404 133.122 402.623C129.834 401.825 126.609 400.652 123.483 399.228C117.216 396.397 111.368 392.6 105.552 388.827C111.081 393.008 116.639 397.223 122.82 400.568C125.904 402.24 129.132 403.697 132.525 404.781C135.913 405.846 139.481 406.509 143.103 406.63C146.727 406.743 150.393 406.276 153.905 405.276C157.359 404.287 160.653 402.783 163.724 400.962C162.788 402.606 161.938 404.156 161.207 405.595C151.038 425.481 151.318 463.449 151.488 486.127C151.519 490.441 151.547 494.257 151.495 497.26C140.474 503.972 119.168 507.237 96.903 506.779L96.969 467.587L97.109 447.936L97.256 438.109C97.35 434.841 97.333 431.562 97.674 428.302C97.085 431.525 96.849 434.807 96.511 438.062L95.616 447.861L93.982 467.466L90.94 506.583C81.959 506.134 72.966 505.073 64.551 503.397C65.025 496.392 65.471 489.395 65.856 482.391C66.076 478.361 66.279 474.334 66.433 470.295C66.513 468.277 66.576 466.27 66.606 464.252C66.62 463.233 66.627 462.225 66.608 461.217C66.557 460.212 66.622 459.17 66.309 458.208C66.498 459.189 66.309 460.207 66.234 461.197C66.127 462.191 65.996 463.187 65.859 464.185C65.586 466.18 65.268 468.156 64.948 470.144C64.294 474.119 63.603 478.075 62.886 482.04C61.674 488.769 60.397 495.503 59.103 502.209C55.788 501.415 52.588 500.519 49.553 499.515C39.47 496.176 31.702 491.861 26.947 486.966C27.864 480.161 28.03 463.616 27.774 449.913C27.363 428.169 26.177 415.616 24.243 412.581C21.826 408.769 19.778 401.479 18.91 394.04C28.451 399.028 38.908 402.109 49.544 402.792C56.086 403.193 62.722 402.651 68.988 400.792C72.11 399.85 75.146 398.606 77.926 396.917C80.707 395.245 83.239 393.171 85.337 390.737C80.76 395.291 74.776 398.046 68.616 399.344C62.433 400.661 56.044 400.68 49.84 399.811C38.02 398.139 26.814 393.32 17.297 386.441C6.544 374.214 7.96501 332.697 12.505 300.608C14.226 288.428 15.517 276.75 12.449 267.777C12.295 267.321 12.192 266.839 12.115 266.345C12.134 266.35 12.161 266.358 12.182 266.369C12.854 268.083 13.513 269.797 14.125 271.431C16.096 274.269 17.075 277.494 17.5 280.937C17.523 281.014 17.546 281.077 17.567 281.15C18.536 292.141 22.158 318.074 35.113 326.018C50.89 335.695 58.678 322.983 58.678 322.983C58.678 322.983 76.294 338.782 88.831 331.924C87.719 334.3 86.703 336.723 85.814 339.188C83.64 345.225 82.157 351.531 81.734 357.907C81.261 364.272 81.94 370.679 83.614 376.751C82.421 370.558 82.266 364.216 83.219 358.062C84.121 351.907 86.035 345.942 88.585 340.319C91.14 334.68 94.339 329.359 97.986 324.38C99.802 321.891 101.734 319.492 103.761 317.179C105.407 315.308 107.163 313.438 108.916 311.757C116.138 313.359 128.475 314.012 135.025 302.514C135.039 302.475 135.039 302.444 135.065 302.405C135.462 301.707 135.789 300.987 136.086 300.28C136.093 300.291 136.097 300.291 136.097 300.304C136.779 297.228 137.542 294.184 137.701 291.031C137.715 287.592 137.306 284.086 137.049 280.607C138.149 267.628 140.014 245.004 139.851 227.937C139.851 227.937 144.991 194.417 144.205 171.629L144.207 171.634V171.624C144.133 171.381 144.062 171.141 143.992 170.897C145.379 156.032 149.382 112.252 149.795 97.508L149.79 97.497C150 93.537 150.168 89.567 150.255 85.585C150.35 81.154 150.334 76.658 150.016 72.168C149.706 67.844 149.58 63.452 149.486 59.07C149.295 50.288 149.316 41.487 149.404 32.674L149.435 28.057C149.787 20.77 151.863 7.49301 162.31 8.24701C167.618 8.57101 172.369 9.552 172.945 9.681C173.478 9.873 173.978 10.082 174.416 10.33C175.051 10.678 175.547 11.072 175.895 11.472C176.07 11.676 176.224 11.864 176.33 12.095L176.428 12.255L176.555 12.567L176.826 13.187C177.202 13.988 177.482 14.989 177.817 15.875L178.677 18.73L179.438 21.651L180.096 24.616C180.901 28.598 181.6 32.616 182.037 36.682C182.1 37.201 182.182 37.766 182.27 38.33C182.255 38.611 182.26 38.891 182.3 39.171C183.38 46.827 185.555 54.828 185.539 62.54L185.276 62.351C184.634 63.285 183.122 64.11 181.573 64.644C180.003 65.209 178.313 65.595 176.595 65.9C174.873 66.192 173.121 66.383 171.364 66.509C169.601 66.624 167.834 66.676 166.059 66.561C167.801 66.905 169.585 67.079 171.371 67.196C173.155 67.31 174.948 67.341 176.759 67.271C178.564 67.189 180.378 67.025 182.206 66.638C183.39 66.351 184.635 66.027 185.813 65.367C187.458 70.84 188.693 76.477 189.678 82.175C190.694 87.996 191.352 93.902 191.889 99.805C192.417 105.733 192.765 111.681 192.97 117.642L193.218 126.614L193.313 131.137C193.328 131.739 193.344 132.342 193.36 132.956C192.264 133.159 191.133 133.308 190.005 133.423C187.566 133.638 185.081 133.715 182.591 133.701C180.107 133.701 177.607 133.612 175.108 133.486C172.615 133.36 170.113 133.154 167.612 133.054C170.09 133.385 172.554 133.814 175.04 134.172C177.526 134.526 180.016 134.849 182.526 135.082C185.036 135.318 187.565 135.478 190.122 135.491C191.233 135.477 192.352 135.439 193.477 135.345C193.489 135.54 193.502 135.726 193.52 135.936L193.522 135.974L193.561 136.226C193.876 138.208 194.108 140.436 194.299 142.659C194.49 144.887 194.642 147.136 194.793 149.388C195.074 153.898 195.305 158.425 195.492 162.951C195.867 172.013 196.134 181.095 196.194 190.131C196.206 194.629 196.204 199.196 195.95 203.493L195.838 205.064C195.77 205.463 195.711 205.86 195.67 206.265C195.652 206.363 195.637 206.484 195.625 206.592C193.831 205.793 192.043 205.17 190.254 204.6C186.207 203.341 182.152 202.423 178.077 201.615C174.002 200.828 169.911 200.179 165.806 199.671C163.756 199.423 161.696 199.208 159.637 199.064C157.58 198.938 155.499 198.765 153.445 198.984C155.506 198.995 157.527 199.392 159.541 199.746C161.554 200.117 163.56 200.563 165.544 201.03C169.523 201.985 173.458 203.069 177.34 204.282C181.207 205.515 185.044 206.853 188.671 208.46C190.478 209.258 192.242 210.123 193.815 211.096C194.404 211.458 194.938 211.838 195.431 212.231C195.456 212.719 195.501 213.19 195.533 213.667H195.522C195.531 213.704 195.533 213.755 195.541 213.793C195.632 214.973 195.734 216.156 195.852 217.313C195.906 217.313 195.955 217.306 196.004 217.301C197.117 227.863 196.619 243.449 196.018 254.445C196.018 254.445 195.098 266.059 193.54 282.02C193.281 282.256 192.977 282.433 192.572 282.496C191.809 282.613 191.16 282.433 190.556 282.116C187.4 281.318 184.229 280.669 181.05 280.11C176.837 279.367 172.605 278.807 168.369 278.331C164.138 277.862 159.895 277.486 155.658 277.215C159.856 277.861 164.036 278.618 168.192 279.464C172.344 280.314 176.482 281.248 180.561 282.345C184.631 283.449 188.664 284.683 192.531 286.2C193.5 286.575 194.459 286.954 195.383 287.404L196.422 287.876C197.316 288.708 198.215 289.531 199.119 290.344C199.803 290.943 200.482 291.54 201.168 292.128C200.047 292.226 198.93 292.324 197.801 292.439C193.672 292.845 189.559 293.401 185.47 294.092C181.381 294.753 177.313 295.664 173.334 296.834C169.388 298.027 165.396 299.463 162.101 301.957C165.699 299.96 169.729 299.132 173.717 298.51C177.72 297.927 181.757 297.604 185.813 297.506C189.865 297.406 193.916 297.431 197.965 297.594C201.997 297.761 206.086 298.022 210.021 298.421L210.024 298.369C210.423 298.383 210.829 298.346 211.21 298.269C211.355 298.238 211.564 298.18 211.63 298.151L211.769 298.102L212.04 298.002C212.42 297.866 212.695 297.735 212.976 297.609C213.532 297.341 214.017 297.079 214.48 296.819C215.418 296.292 216.271 295.767 217.126 295.231C218.816 294.165 220.453 293.092 222.083 292.025C225.336 289.883 228.557 287.778 231.816 285.748C235.071 283.738 238.359 281.809 241.693 280.121C245.013 278.435 248.463 276.938 251.724 276.266L251.972 276.222C252.133 276.703 252.308 277.184 252.488 277.677C253.256 279.714 254.195 281.684 255.283 283.55C256.353 285.416 257.642 287.155 259.056 288.75C260.441 290.369 262.113 291.7 263.789 292.933C262.355 291.412 261.003 289.85 259.974 288.059C258.917 286.306 258.025 284.478 257.359 282.565C256.677 280.667 256.156 278.717 255.801 276.748C255.602 275.648 255.45 274.502 255.358 273.379C260.73 267.938 266.349 262.748 272.371 258.14C279.07 252.956 286.262 248.422 293.947 245.3C297.781 243.731 301.732 242.526 305.73 241.823C309.732 241.12 313.781 240.998 317.725 241.465C321.683 241.921 325.498 243.135 329.057 244.858C330.402 245.561 331.728 246.299 332.999 247.142C328.506 249.781 322.159 255.624 313.599 264.935C313.113 265.466 312.784 265.823 312.658 265.949C311.549 267.028 311.887 269.269 312.082 270.178C312.447 271.871 313.342 273.835 314.851 275.233C311.887 278.704 308.984 282.2 306.089 285.656ZM338.635 251.676C338.635 251.676 338.635 251.676 338.627 251.676L338.042 252.148C336.268 253.554 334.469 254.932 332.82 256.454C329.416 259.387 326.305 262.574 323.252 265.782C320.889 268.316 318.598 270.889 316.358 273.484C315.355 272.525 314.817 271.286 314.595 270.658C314.028 269.012 314.152 267.786 314.266 267.59C314.399 267.45 314.758 267.072 315.294 266.486C325.978 254.869 331.825 250.257 335.029 248.595C335.533 248.987 336.028 249.389 336.532 249.785C336.934 250.094 337.289 250.447 337.672 250.781L338.234 251.284L338.513 251.539L338.64 251.653L338.644 251.665C338.654 251.688 338.649 251.665 338.644 251.676H338.635V251.676ZM100.304 291.92C104.475 293.84 114.616 295.934 124.063 293.357C134.193 290.604 129.427 265.731 129.364 265.483C128.792 263.146 124.946 261.137 123.319 260.388C116.545 257.273 103.531 255.017 97.708 266.37C96.545 268.633 96.099 287.019 97.521 289.755C97.927 290.536 98.835 291.244 100.304 291.92ZM120.813 262.574C119.127 264.052 116.651 264.974 113.912 265.05C110.744 265.141 107.865 264.099 105.896 262.219C110.69 259.907 116.672 260.948 120.813 262.574ZM100.365 267.739C101.467 265.597 102.91 264.075 104.535 262.994C105.473 263.97 106.613 264.771 107.888 265.357C109.689 266.188 111.772 266.61 113.957 266.55C117.311 266.447 120.339 265.203 122.293 263.222C125.09 264.544 126.33 265.814 126.459 266.188C127.362 269.915 129.48 288.785 123.279 290.475C115.057 292.717 105.625 291.085 101.556 289.204C100.495 288.721 100.194 288.391 100.18 288.385C100.18 288.385 100.178 288.385 100.18 288.392C99.225 286.232 99.62 269.572 100.365 267.739ZM63.243 315.174C70.63 318.578 83.451 316.014 86.574 311.701C90.301 306.557 85.556 286.594 84.477 284.759C83.863 283.716 82.604 282.746 80.732 281.883C76.239 279.814 69.024 278.779 63.919 280.822C61.142 281.929 59.213 283.795 58.188 286.359C57.199 288.848 56.325 308.547 59.749 312.596C60.628 313.642 61.803 314.513 63.243 315.174ZM77.41 283.809C75.62 285.091 73.683 285.733 71.718 285.675C69.663 285.61 67.674 284.76 65.981 283.275C69.456 282.254 73.953 282.702 77.41 283.809ZM60.967 287.465C61.598 285.875 62.761 284.671 64.419 283.871C65.437 284.873 66.567 285.674 67.773 286.232C69.01 286.802 70.327 287.122 71.672 287.159C74.276 287.247 76.799 286.29 79.06 284.418C79.2 284.481 79.349 284.539 79.48 284.595C80.935 285.268 81.682 285.902 81.904 286.269C82.883 288.048 86.757 306.35 84.157 309.947C81.969 312.964 70.78 315.363 64.496 312.462C63.456 311.988 62.628 311.383 62.033 310.671C59.739 307.963 59.986 289.929 60.967 287.465Z" fill="#0B090B"/>
</svg>
